<?xml version="1.0" encoding="iso-8859-1"?>
<!-- Uploaded to: SVG Repo, www.svgrepo.com, Generator: SVG Repo Mixer Tools -->
<svg version="1.1" id="Layer_1" xmlns="http://www.w3.org/2000/svg" xmlns:xlink="http://www.w3.org/1999/xlink" 
	 viewBox="0 0 512 512" xml:space="preserve">
<rect x="103.194" y="457.665" style="fill:#5E5E68;" width="305.622" height="43.886"/>
<g>
	<path style="fill:#FF3131;" d="M212.114,10.449c0,24.237,19.648,43.886,43.886,43.886c24.237,0,43.886-19.648,43.886-43.886
		H212.114z"/>
	<path style="fill:#FF3131;" d="M374.658,177.59c0,24.237,19.648,43.886,43.886,43.886c24.237,0,43.886-19.648,43.886-43.886
		H374.658z"/>
	<path style="fill:#FF3131;" d="M49.571,177.324c0,24.237,19.648,43.886,43.886,43.886s43.886-19.648,43.886-43.886H49.571z"/>
</g>
<g>
	<path style="fill:#FFAE18;" d="M95.092,294.353c0,24.237,19.648,43.886,43.886,43.886s43.886-19.648,43.886-43.886H95.092z"/>
	<path style="fill:#FFAE18;" d="M329.137,294.353c0,24.237,19.648,43.886,43.886,43.886s43.886-19.648,43.886-43.886H329.137z"/>
	<path style="fill:#FFAE18;" d="M95.092,60.296c0,24.237,19.648,43.886,43.886,43.886s43.886-19.648,43.886-43.886H95.092z"/>
	<path style="fill:#FFAE18;" d="M329.137,59.318c0,24.237,19.648,43.886,43.886,43.886s43.886-19.648,43.886-43.886
		C416.908,59.318,329.137,59.318,329.137,59.318z"/>
</g>
<path style="fill:#FF3131;" d="M212.114,340.328c0,24.237,19.648,43.886,43.886,43.886c24.237,0,43.886-19.648,43.886-43.886
	H212.114z"/>
<path d="M472.878,177.59c0-5.77-4.679-10.449-10.449-10.449h-35.821c-4.123-21.933-12.555-43.053-24.674-61.852
	c15.26-9.631,25.424-26.631,25.424-45.971c0-5.77-4.679-10.449-10.449-10.449h-75.114c-0.098-0.067-0.189-0.14-0.29-0.204
	l-4.581-2.886c-0.24-0.153-0.488-0.294-0.741-0.425c-9.84-5.127-20.14-9.261-30.747-12.401c3.136-6.863,4.899-14.479,4.899-22.504
	C310.335,4.678,305.656,0,299.886,0h-87.771c-5.77,0-10.449,4.678-10.449,10.449c0,8.045,1.771,15.679,4.923,22.554
	c-12.572,3.74-24.68,8.897-36.141,15.421c-0.713,0.405-1.351,0.889-1.928,1.422H95.092c-5.77,0-10.449,4.679-10.449,10.449
	c0,19.238,10.058,36.159,25.182,45.817c-11.799,18.525-20.034,39.221-24.115,60.763H49.571c-5.77,0-10.449,4.679-10.449,10.449
	c0,27.292,20.228,49.939,46.477,53.759c3.448,18.656,9.841,36.353,19.087,52.821h-9.594c-5.77,0-10.449,4.679-10.449,10.449
	c0,29.96,24.374,54.335,54.335,54.335c7.729,0,15.08-1.633,21.743-4.555c6.765,4.465,13.796,8.43,21.062,11.883l-36.707,91.202
	h-41.885c-5.77,0-10.449,4.679-10.449,10.449v43.886c0,5.77,4.679,10.449,10.449,10.449h305.618c5.77,0,10.449-4.679,10.449-10.449
	v-43.886c0-5.77-4.679-10.449-10.449-10.449h-41.504l-36.723-91.244c7.199-3.425,14.167-7.347,20.865-11.763
	c6.618,2.876,13.912,4.478,21.576,4.478c29.96,0,54.335-24.374,54.335-54.335c0-5.77-4.679-10.449-10.449-10.449h-9.376
	c9.14-16.359,15.621-34.195,19.074-52.581C452.756,227.415,472.878,204.81,472.878,177.59z M418.543,211.027
	c-14.789,0-27.367-9.652-31.765-22.988h63.531C445.91,201.375,433.333,211.027,418.543,211.027z M373.022,92.755
	c-14.789,0-27.367-9.652-31.765-22.988h63.531C400.39,83.102,387.812,92.755,373.022,92.755z M287.765,20.898
	C283.367,34.234,270.789,43.886,256,43.886c-14.789,0-27.367-9.652-31.765-22.988H287.765z M170.743,70.745
	c-4.398,13.336-16.975,22.988-31.765,22.988s-27.367-9.652-31.765-22.988H170.743z M129.749,113.831
	c3.002,0.516,6.081,0.8,9.227,0.8c29.96,0,54.335-24.374,54.335-54.335c0-0.022-0.003-0.042-0.003-0.064
	c8.57-3.881,17.468-6.967,26.622-9.195c9.603,8.542,22.238,13.746,36.07,13.746c13.862,0,26.521-5.224,36.13-13.799
	c9.125,2.208,18.015,5.277,26.578,9.132c0.43,29.592,24.622,53.535,54.315,53.535c3.027,0,5.992-0.26,8.886-0.739
	c11.239,16.354,19.221,34.883,23.384,54.227h-25.786C365.23,112.352,315.33,71.79,256.133,71.79
	c-59.103,0-108.934,40.431-123.302,95.086H107.03C111.131,147.973,118.88,129.899,129.749,113.831z M297.552,329.879h-82.725
	l3.558-8.84c11.933,3.706,24.61,5.705,37.747,5.705c13.174,0,25.887-2.008,37.85-5.735L297.552,329.879z M224.235,350.777h63.53
	c-4.398,13.336-16.975,22.988-31.765,22.988C241.211,373.765,228.633,364.113,224.235,350.777z M323.711,116.914l-50.965,50.965
	c-1.955-1.039-4.017-1.904-6.166-2.567V93.201C288.142,95.308,307.838,103.865,323.711,116.914z M290.089,188.818
	c-0.662-2.148-1.527-4.208-2.565-6.162l50.965-50.965c13.048,15.873,21.603,35.568,23.711,57.127H290.089z M256.133,184.639
	c8.019,0,14.545,6.487,14.621,14.488c-0.001,0.047-0.007,0.094-0.007,0.141s0.006,0.094,0.007,0.141
	c-0.018,1.871-0.392,3.656-1.053,5.299l-3.76-9.34c-1.535-3.814-5.065-6.214-8.903-6.509c-0.061-0.005-0.623-0.035-0.845-0.033
	c-0.229-0.001-0.791,0.028-0.845,0.032c-3.84,0.293-7.375,2.695-8.91,6.51l-3.82,9.492c-0.716-1.724-1.116-3.611-1.116-5.591
	C241.504,191.201,248.066,184.639,256.133,184.639z M245.684,165.311c-2.15,0.663-4.212,1.529-6.168,2.568l-50.964-50.964
	c15.874-13.05,35.571-21.607,57.133-23.715v72.111H245.684z M173.774,131.694l50.966,50.966c-1.038,1.953-1.902,4.011-2.563,6.159
	h-72.11C152.174,167.261,160.728,147.566,173.774,131.694z M222.177,209.716c0.662,2.149,1.528,4.211,2.567,6.166l-50.965,50.965
	c-13.049-15.873-21.605-35.57-23.713-57.13h72.11V209.716z M188.557,281.624l38.771-38.771l-20.482,50.89
	C200.326,290.328,194.198,286.261,188.557,281.624z M245.684,253.215v52.118c-6.686-0.654-13.192-1.93-19.461-3.766L245.684,253.215
	z M266.582,305.334v-52.409l19.565,48.612C279.845,303.39,273.305,304.677,266.582,305.334z M285.135,243.055l38.571,38.571
	c-5.613,4.614-11.708,8.662-18.191,12.066L285.135,243.055z M338.484,266.849l-50.964-50.964c1.04-1.956,1.905-4.018,2.568-6.168
	h72.11C360.092,231.278,351.535,250.975,338.484,266.849z M61.692,187.773h63.531c-4.398,13.336-16.975,22.988-31.765,22.988
	S66.09,201.109,61.692,187.773z M106.683,230.024c8.805-2.211,16.767-6.569,23.286-12.494c3.64,25.262,14.713,48.151,30.926,66.374
	h-31.696C118.169,267.402,110.613,249.313,106.683,230.024z M107.212,304.802h63.531c-4.398,13.336-16.975,22.988-31.765,22.988
	S111.61,318.138,107.212,304.802z M179.088,330.964c5.654-6.189,9.885-13.69,12.208-21.982c2.518,1.494,5.091,2.904,7.717,4.226
	l-9.411,23.385C186.028,334.858,182.524,332.98,179.088,330.964z M344.777,447.216h-28.185c-5.77,0-10.449,4.679-10.449,10.449
	s4.679,10.449,10.449,10.449h81.768v22.988H113.64v-22.988h138.322c5.77,0,10.449-4.679,10.449-10.449s-4.679-10.449-10.449-10.449
	h-84.359l33.562-83.388c2.3,0.767,4.618,1.486,6.955,2.158c9.176,17.055,27.195,28.677,47.88,28.677
	c20.653,0,38.65-11.585,47.839-28.597c2.474-0.706,4.928-1.466,7.36-2.279L344.777,447.216z M313.35,313.16
	c2.513-1.267,4.978-2.617,7.393-4.043c2.343,8.284,6.594,15.772,12.263,21.946c-3.349,1.959-6.764,3.791-10.243,5.484L313.35,313.16
	z M373.022,327.79c-14.789,0-27.367-9.652-31.765-22.988h63.531C400.39,318.138,387.812,327.79,373.022,327.79z M351.37,283.904
	c16.119-18.117,27.159-40.845,30.864-65.933c6.53,5.877,14.486,10.191,23.28,12.363c-3.961,19.05-11.631,37.357-22.454,53.57H351.37
	z"/>
<path d="M285.903,447.216h-0.138c-5.77,0-10.449,4.679-10.449,10.449s4.679,10.449,10.449,10.449h0.138
	c5.77,0,10.449-4.679,10.449-10.449S291.674,447.216,285.903,447.216z"/>
</svg>