<?xml version="1.0" encoding="iso-8859-1"?>
<!-- Uploaded to: SVG Repo, www.svgrepo.com, Generator: SVG Repo Mixer Tools -->
<svg version="1.1" id="Layer_1" xmlns="http://www.w3.org/2000/svg" xmlns:xlink="http://www.w3.org/1999/xlink" 
	 viewBox="0 0 512 512" xml:space="preserve">
<g>
	<rect x="418.356" y="22.905" style="fill:#AEADB3;" width="31.347" height="37.01"/>
	<rect x="419.004" y="135.052" style="fill:#AEADB3;" width="31.347" height="338.369"/>
</g>
<polygon style="fill:#FFC473;" points="485.606,47.533 473.015,162.974 395.661,162.974 383.08,47.533 "/>
<g>
	<rect x="434.678" y="22.905" style="fill:#8B8892;" width="15.026" height="37.01"/>
	<rect x="434.678" y="135.052" style="fill:#8B8892;" width="15.673" height="338.369"/>
</g>
<polygon style="fill:#FFA91F;" points="485.606,47.533 473.015,162.974 434.678,162.974 434.678,47.533 "/>
<rect x="111.156" y="303.281" style="fill:#9A4C00;" width="31.347" height="61.649"/>
<rect x="277.483" y="303.281" style="fill:#723700;" width="31.347" height="61.649"/>
<rect x="93.403" y="398.366" style="fill:#9A4C00;" width="31.347" height="77.73"/>
<rect x="311.965" y="398.366" style="fill:#723700;" width="31.347" height="77.73"/>
<rect x="111.156" y="224.15" style="fill:#9A4C00;" width="31.347" height="40.824"/>
<rect x="277.483" y="224.15" style="fill:#723700;" width="31.347" height="40.824"/>
<g>
	<rect x="91.303" y="259.635" style="fill:#A17852;" width="237.39" height="48.87"/>
	<rect x="44.231" y="358.712" style="fill:#A17852;" width="331.525" height="48.88"/>
</g>
<rect y="457.748" style="fill:#57555C;" width="512" height="31.347"/>
<rect x="209.993" y="457.748" style="fill:#2B292C;" width="302.007" height="31.347"/>
<g>
	<rect x="209.993" y="259.635" style="fill:#735538;" width="118.7" height="48.87"/>
	<rect x="209.993" y="358.712" style="fill:#735538;" width="165.763" height="48.88"/>
</g>
</svg>