<?xml version="1.0" encoding="iso-8859-1"?>
<!-- Uploaded to: SVG Repo, www.svgrepo.com, Generator: SVG Repo Mixer Tools -->
<svg version="1.1" id="Layer_1" xmlns="http://www.w3.org/2000/svg" xmlns:xlink="http://www.w3.org/1999/xlink" 
	 viewBox="0 0 512 512" xml:space="preserve">
<path style="fill:#FE9528;" d="M192.011,201.543V384l148.415-32.681C340.426,269.051,274.105,202.273,192.011,201.543z"/>
<path style="fill:#FEC14D;" d="M192.011,201.543c58.03,1.035,104.84,67.693,104.84,149.776L192.011,384l-151.16-32.681
	c0-82.726,67.061-149.787,149.787-149.787C191.096,201.532,191.553,201.532,192.011,201.543z"/>
<polygon style="fill:#AAC36D;" points="503.83,351.319 503.83,503.83 471.149,503.83 405.787,427.574 471.149,351.319 "/>
<rect x="8.17" y="351.319" style="fill:#CAED73;" width="462.979" height="152.511"/>
<polygon style="fill:#FEC14D;" points="471.149,8.17 471.149,75.166 416.681,96.953 438.468,8.17 "/>
<polygon style="fill:#FFD686;" points="438.468,8.17 438.468,96.953 373.106,75.166 373.106,8.17 "/>
<polygon style="fill:#FFE0A2;" points="438.468,75.166 394.894,460.255 471.149,460.255 471.149,75.166 "/>
<rect x="373.106" y="75.166" style="fill:#FFEDC6;" width="65.362" height="385.089"/>
<polygon style="fill:#FEC14D;" points="454.809,438.468 422.128,482.043 487.489,482.043 487.489,438.468 "/>
<rect x="356.766" y="438.468" style="fill:#FFD686;" width="98.043" height="43.574"/>
<path style="fill:#FFA850;" d="M487.489,471.149h-32.681v32.681h32.681c9.02,0,16.34-7.321,16.34-16.34
	C503.83,478.469,496.509,471.149,487.489,471.149z"/>
<path style="fill:#FEC14D;" d="M454.809,471.149c9.02,0,16.34,7.32,16.34,16.34c0,9.02-7.321,16.34-16.34,16.34h-98.043
	c-9.02,0-16.34-7.321-16.34-16.34c0-9.02,7.321-16.34,16.34-16.34H454.809z"/>
<polygon style="fill:#FFE0A2;" points="242.383,177.021 198.809,460.255 275.064,460.255 275.064,177.021 "/>
<polygon style="fill:#FFEDC6;" points="177.021,460.255 177.021,144.34 209.702,144.34 242.383,177.021 242.383,460.255 "/>
<polygon style="fill:#FEC14D;" points="258.723,438.468 226.043,482.043 291.404,482.043 291.404,438.468 "/>
<rect x="160.681" y="438.468" style="fill:#FFD686;" width="98.043" height="43.574"/>
<path style="fill:#FFA850;" d="M291.404,471.149h-32.681v32.681h32.681c9.02,0,16.34-7.321,16.34-16.34
	C307.745,478.469,300.424,471.149,291.404,471.149z"/>
<path style="fill:#FEC14D;" d="M258.723,471.149c9.02,0,16.34,7.32,16.34,16.34c0,9.02-7.32,16.34-16.34,16.34h-98.043
	c-9.02,0-16.34-7.321-16.34-16.34c0-9.02,7.321-16.34,16.34-16.34H258.723z"/>
<path style="fill:#D9F7FF;" d="M98.043,73.532H65.362V128h32.681c15.044,0,27.234-12.19,27.234-27.234S113.087,73.532,98.043,73.532
	z"/>
<path style="fill:#FFFFFF;" d="M65.362,73.532c15.044,0,27.234,12.19,27.234,27.234S80.406,128,65.362,128H35.404
	C20.36,128,8.17,115.81,8.17,100.766s12.19-27.234,27.234-27.234H65.362z"/>
<path style="fill:#D9F7FF;" d="M283.234,8.17h-32.681v54.468h32.681c15.044,0,27.234-12.19,27.234-27.234S298.278,8.17,283.234,8.17
	z"/>
<path style="fill:#FFFFFF;" d="M250.553,8.17c15.044,0,27.234,12.19,27.234,27.234s-12.19,27.234-27.234,27.234h-84.426
	c-15.044,0-27.234-12.19-27.234-27.234S151.084,8.17,166.128,8.17H250.553z"/>
<path d="M40.851,446.638c-4.512,0-8.17,3.658-8.17,8.17v10.894c0,4.512,3.658,8.17,8.17,8.17s8.17-3.658,8.17-8.17v-10.894
	C49.021,450.296,45.363,446.638,40.851,446.638z"/>
<path d="M8.17,413.957c-4.512,0-8.17,3.658-8.17,8.17v10.894c0,4.512,3.658,8.17,8.17,8.17s8.17-3.658,8.17-8.17v-10.894
	C16.34,417.616,12.682,413.957,8.17,413.957z"/>
<path d="M106.213,413.957c-4.512,0-8.17,3.658-8.17,8.17v10.894c0,4.512,3.658,8.17,8.17,8.17c4.512,0,8.17-3.658,8.17-8.17v-10.894
	C114.383,417.616,110.725,413.957,106.213,413.957z"/>
<path d="M405.787,99.677c-4.513,0-8.17,3.658-8.17,8.17v297.94c0,4.512,3.657,8.17,8.17,8.17c4.513,0,8.17-3.658,8.17-8.17v-297.94
	C413.957,103.335,410.3,99.677,405.787,99.677z"/>
<path d="M438.468,99.677c-4.513,0-8.17,3.658-8.17,8.17v297.94c0,4.512,3.657,8.17,8.17,8.17c4.513,0,8.17-3.658,8.17-8.17v-297.94
	C446.638,103.335,442.981,99.677,438.468,99.677z"/>
<path d="M495.66,464.384v-18.221c3.171-1.123,5.447-4.14,5.447-7.695c0-4.512-3.657-8.17-8.17-8.17h-13.617v-70.809h24.511
	c4.513,0,8.17-3.658,8.17-8.17c0-4.512-3.657-8.17-8.17-8.17h-24.511V83.336h2.723c4.513,0,8.17-3.658,8.17-8.17
	c0-4.512-3.657-8.17-8.17-8.17h-2.723V8.17c0-4.512-3.657-8.17-8.17-8.17h-98.043c-4.513,0-8.17,3.658-8.17,8.17v58.826h-2.723
	c-4.513,0-8.17,3.658-8.17,8.17c0,4.512,3.657,8.17,8.17,8.17h2.723v259.813h-16.554c-1.601-31.804-12.546-61.844-31.911-87.323
	c-2.731-3.592-7.854-4.292-11.449-1.561c-3.593,2.73-4.291,7.855-1.561,11.448c17.184,22.611,26.95,49.236,28.536,77.436h-48.763
	V177.021c0-4.512-3.657-8.17-8.17-8.17h-29.297l-30.286-30.286c-0.188-0.188-0.387-0.368-0.594-0.537
	c-0.053-0.044-0.111-0.081-0.164-0.123c-0.156-0.122-0.313-0.243-0.477-0.353c-0.051-0.035-0.106-0.063-0.158-0.096
	c-0.173-0.11-0.348-0.219-0.529-0.317c-0.039-0.022-0.082-0.038-0.122-0.059c-0.197-0.101-0.397-0.199-0.601-0.284
	c-0.029-0.012-0.06-0.021-0.088-0.033c-0.217-0.087-0.437-0.169-0.662-0.237c-0.033-0.01-0.066-0.016-0.099-0.025
	c-0.221-0.064-0.446-0.123-0.674-0.169c-0.069-0.014-0.139-0.02-0.208-0.032c-0.194-0.034-0.387-0.068-0.585-0.087
	c-0.27-0.027-0.543-0.041-0.816-0.041H177.02c-4.512,0-8.17,3.658-8.17,8.17v50.515c-36.246,5.005-69.593,22.45-94.561,49.628
	c-24.983,27.194-39.509,61.964-41.392,98.665H8.17c-4.512,0-8.17,3.658-8.17,8.17c0,4.512,3.658,8.17,8.17,8.17h160.681v70.809
	h-13.617c-4.512,0-8.17,3.658-8.17,8.17c0,3.556,2.276,6.572,5.447,7.695v18.221c-9.509,3.373-16.34,12.454-16.34,23.105
	c0,13.516,10.995,24.511,24.511,24.511h130.723c13.515,0,24.511-10.995,24.511-24.511c0-10.651-6.831-19.733-16.34-23.105v-18.221
	c3.171-1.123,5.447-4.14,5.447-7.695c0-4.512-3.657-8.17-8.17-8.17h-13.617v-70.809h81.702v70.809h-13.617
	c-4.513,0-8.17,3.658-8.17,8.17c0,3.556,2.276,6.572,5.447,7.695v18.221c-9.509,3.373-16.34,12.454-16.34,23.105
	c0,13.516,10.996,24.511,24.511,24.511h130.723C501.004,512,512,501.005,512,487.489C512,476.839,505.169,467.757,495.66,464.384z
	 M49.258,343.149c3.746-67.079,53.349-121.675,119.593-131.781v131.781H49.258z M283.234,446.638v16.34H168.851v-16.34H283.234z
	 M291.404,495.66H160.681c-4.506,0-8.17-3.665-8.17-8.17s3.665-8.17,8.17-8.17h130.723c4.506,0,8.17,3.665,8.17,8.17
	S295.91,495.66,291.404,495.66z M185.191,430.298V152.511h16.34v253.277c0,4.512,3.658,8.17,8.17,8.17s8.17-3.658,8.17-8.17V164.064
	l16.34,16.34v61.978c0,4.512,3.658,8.17,8.17,8.17c4.512,0,8.17-3.658,8.17-8.17v-57.191h16.34v245.106H185.191z M364.936,462.979
	v-16.34h114.383v16.34H364.936z M381.277,16.34h81.702v50.655h-81.702V16.34z M381.277,83.336h81.702v346.962h-81.702V83.336z
	 M487.489,495.66H356.766c-4.506,0-8.17-3.665-8.17-8.17s3.665-8.17,8.17-8.17h130.723c4.506,0,8.17,3.665,8.17,8.17
	S491.995,495.66,487.489,495.66z"/>
<path d="M242.383,266.894c-4.512,0-8.17,3.658-8.17,8.17v130.723c0,4.512,3.658,8.17,8.17,8.17c4.512,0,8.17-3.658,8.17-8.17
	V275.064C250.553,270.552,246.895,266.894,242.383,266.894z"/>
<path d="M35.404,136.17h62.638c19.521,0,35.404-15.883,35.404-35.404s-15.883-35.404-35.404-35.404H35.404
	C15.883,65.362,0,81.245,0,100.766S15.883,136.17,35.404,136.17z M35.404,81.702h62.638c10.511,0,19.064,8.553,19.064,19.064
	s-8.553,19.064-19.064,19.064H35.404c-10.511,0-19.064-8.553-19.064-19.064S24.893,81.702,35.404,81.702z"/>
<path d="M166.128,70.809h117.106c19.522,0,35.404-15.883,35.404-35.404S302.756,0,283.234,0H166.128
	c-19.521,0-35.404,15.883-35.404,35.404S146.606,70.809,166.128,70.809z M166.128,16.34h117.106
	c10.511,0,19.064,8.553,19.064,19.064s-8.553,19.064-19.064,19.064H166.128c-10.511,0-19.064-8.553-19.064-19.064
	S155.616,16.34,166.128,16.34z"/>
</svg>