<?xml version="1.0" encoding="iso-8859-1"?>
<!-- Uploaded to: SVG Repo, www.svgrepo.com, Generator: SVG Repo Mixer Tools -->
<svg version="1.1" id="Layer_1" xmlns="http://www.w3.org/2000/svg" xmlns:xlink="http://www.w3.org/1999/xlink" 
	 viewBox="0 0 496.2 496.2" xml:space="preserve">
<path style="fill:#A2D4DE;" d="M0,248.1C0,111.1,111.1,0,248.1,0s248.1,111.1,248.1,248.1S385.1,496.2,248.1,496.2S0,385.1,0,248.1z
	"/>
<path style="fill:#65A844;" d="M0,248.1h496.2c0,137-111.1,248.1-248.1,248.1S0,385.1,0,248.1z"/>
<g>
	<path style="fill:#FFFFFF;" d="M113.4,158h262.4c17.4,0,31.5,14.1,31.5,31.5v177.3h17.3V174.6c0-19.3-15.7-35-35-35H98.3
		c-19.3,0-35,15.6-35,35v192.2h18.6V189.5C82,172.1,96.1,158,113.4,158z"/>
	<polygon style="fill:#FFFFFF;" points="164.3,280.5 328.5,280.5 408,365.5 418.9,365.5 337.2,268.9 154.8,268.9 69.8,364.2 
		81.4,364.2 	"/>
	<polygon style="fill:#FFFFFF;" points="154.9,272.7 88.3,159.6 91.7,157.6 158.3,270.7 	"/>
	
		<rect x="302.928" y="213.235" transform="matrix(0.5073 -0.8618 0.8618 0.5073 -3.8507 423.6343)" style="fill:#FFFFFF;" width="131.292" height="3.9"/>
	<rect x="242.3" y="150.8" style="fill:#FFFFFF;" width="3.9" height="123.4"/>
	<polygon style="fill:#FFFFFF;" points="272.3,274.2 268.3,274 274,150.7 277.9,150.9 	"/>
	<polygon style="fill:#FFFFFF;" points="296.5,274.1 292.6,273.8 301.6,150.8 305.5,151.1 	"/>
	<polygon style="fill:#FFFFFF;" points="317.4,272.2 313.7,271.1 348.2,152.7 352,153.8 	"/>
	<polygon style="fill:#FFFFFF;" points="219.8,274.2 223.7,274 218.1,150.7 214.2,150.9 	"/>
	<polygon style="fill:#FFFFFF;" points="195.6,274.1 199.5,273.8 190.4,150.8 186.5,151.1 	"/>
	<polygon style="fill:#FFFFFF;" points="174.6,272.2 178.4,271.1 143.8,152.7 140.1,153.8 	"/>
	<rect x="102.7" y="178.7" style="fill:#FFFFFF;" width="287.4" height="3.9"/>
	<rect x="116.9" y="202.7" style="fill:#FFFFFF;" width="259" height="3.9"/>
	<rect x="129.7" y="225.2" style="fill:#FFFFFF;" width="233.6" height="3.9"/>
	<rect x="143.2" y="246.2" style="fill:#FFFFFF;" width="206.5" height="3.9"/>
	
		<rect x="331.212" y="283.95" transform="matrix(-0.6508 -0.7593 0.7593 -0.6508 411.6452 761.1362)" style="fill:#FFFFFF;" width="99.304" height="3.9"/>
	
		<rect x="350.082" y="253.587" transform="matrix(-0.6809 -0.7323 0.7323 -0.6809 465.3663 713.8223)" style="fill:#FFFFFF;" width="76.196" height="3.9"/>
	<polygon style="fill:#FFFFFF;" points="412.8,238.9 374.6,204.1 377.3,201.2 415.4,236 	"/>
	
		<rect x="385.582" y="185.767" transform="matrix(-0.8459 -0.5333 0.5333 -0.8459 636.1921 559.2383)" style="fill:#FFFFFF;" width="26.599" height="3.9"/>
	
		<rect x="379.63" y="172.776" transform="matrix(-0.8445 -0.5356 0.5356 -0.8445 577.733 638.5187)" style="fill:#FFFFFF;" width="3.9" height="125.192"/>
	
		<rect x="388.2" y="204.302" transform="matrix(-0.8464 -0.5325 0.5325 -0.8464 581.714 688.5696)" style="fill:#FFFFFF;" width="3.9" height="112.197"/>
	<polygon style="fill:#FFFFFF;" points="377.1,325.6 373.8,323.5 413.4,260.4 416.8,262.5 	"/>
	
		<rect x="402.091" y="295.484" transform="matrix(-0.8335 -0.5525 0.5525 -0.8335 564.0749 809.7446)" style="fill:#FFFFFF;" width="3.9" height="48.799"/>
	<polygon style="fill:#FFFFFF;" points="80.7,324.9 145.3,249.5 142.4,246.9 77.7,322.3 	"/>
	
		<rect x="66.099" y="253.588" transform="matrix(0.6809 -0.7323 0.7323 0.6809 -153.8956 157.8399)" style="fill:#FFFFFF;" width="76.196" height="3.9"/>
	
		<rect x="71.572" y="218.051" transform="matrix(0.7395 -0.6731 0.6731 0.7395 -122.7259 122.8473)" style="fill:#FFFFFF;" width="51.598" height="3.9"/>
	
		<rect x="80.13" y="185.743" transform="matrix(0.8459 -0.5333 0.5333 0.8459 -85.703 78.7474)" style="fill:#FFFFFF;" width="26.599" height="3.9"/>
	<polygon style="fill:#FFFFFF;" points="142.7,289.4 146,287.3 78.9,181.5 75.6,183.6 	"/>
	<polygon style="fill:#FFFFFF;" points="130.4,309 133.8,306.9 74,211.9 70.7,214 	"/>
	
		<rect x="95.169" y="255.65" transform="matrix(0.8468 -0.532 0.532 0.8468 -140.9601 96.557)" style="fill:#FFFFFF;" width="3.9" height="74.604"/>
	
		<rect x="86.359" y="295.542" transform="matrix(0.8335 -0.5525 0.5525 0.8335 -162.0669 102.0589)" style="fill:#FFFFFF;" width="3.9" height="48.799"/>
</g>
</svg>