<?xml version="1.0" encoding="UTF-8" standalone="no"?>
<!-- Created with Inkscape (http://www.inkscape.org/) -->
<svg
   xmlns:dc="http://purl.org/dc/elements/1.1/"
   xmlns:cc="http://web.resource.org/cc/"
   xmlns:rdf="http://www.w3.org/1999/02/22-rdf-syntax-ns#"
   xmlns:svg="http://www.w3.org/2000/svg"
   xmlns="http://www.w3.org/2000/svg"
   xmlns:sodipodi="http://sodipodi.sourceforge.net/DTD/sodipodi-0.dtd"
   xmlns:inkscape="http://www.inkscape.org/namespaces/inkscape"
   id="svg2"
   sodipodi:version="0.32"
   inkscape:version="0.44.1"
   width="800"
   height="800"
   version="1.0"
   sodipodi:docbase="C:\Documents and Settings\Marcin\Pulpit"
   sodipodi:docname="Logo_Parku_Krajobrazowego_Dolina_Jezierzycy.svg">
  <metadata
     id="metadata7">
    <rdf:RDF>
      <cc:Work
         rdf:about="">
        <dc:format>image/svg+xml</dc:format>
        <dc:type
           rdf:resource="http://purl.org/dc/dcmitype/StillImage" />
      </cc:Work>
    </rdf:RDF>
  </metadata>
  <defs
     id="defs5" />
  <sodipodi:namedview
     inkscape:window-height="721"
     inkscape:window-width="1024"
     inkscape:pageshadow="2"
     inkscape:pageopacity="0.0"
     guidetolerance="10.0"
     gridtolerance="10.0"
     objecttolerance="10.0"
     borderopacity="1.0"
     bordercolor="#666666"
     pagecolor="#ffffff"
     id="base"
     inkscape:zoom="0.2683598"
     inkscape:cx="551.53212"
     inkscape:cy="409.55177"
     inkscape:window-x="-4"
     inkscape:window-y="-4"
     inkscape:current-layer="svg2" />
  <g
     id="g10810"
     transform="matrix(3.20048,0,0,3.20048,-0.560084,-0.560084)">
    <path
       id="path1873"
       d="M 217.05159,128.45238 C 217.05159,178.99542 176.03115,220.01587 125.4881,220.01587 C 74.945051,220.01587 33.924606,178.99542 33.924606,128.45238 C 33.924606,77.90933 74.945051,36.888885 125.4881,36.888885 C 176.03115,36.888885 217.05159,77.90933 217.05159,128.45238 z "
       style="fill:#f7f8bc;fill-opacity:1;fill-rule:nonzero;stroke:#a9833b;stroke-width:3.9000001;stroke-linecap:butt;stroke-linejoin:round;stroke-miterlimit:4;stroke-dashoffset:0;stroke-opacity:1"
       transform="translate(-0.329365,-3.293651)" />
    <path
       id="path7225"
       d="M 62.183307,185.18642 C 71.956262,176.58772 83.082986,171.23249 66.608336,159.33493 C 16.61283,123.22949 125.37583,107.19544 207.74348,86.438396 L 211.70272,94.123973 C 77.209172,133.30847 109.44264,136.68683 114.11918,138.84006 C 134.627,148.28252 175.17034,155.41377 190.27626,189.61145 C 168.19683,209.45607 115.42109,235.71358 62.183307,185.18642 z "
       style="color:black;fill:#0089e1;fill-opacity:1;fill-rule:nonzero;stroke:#1882c0;stroke-width:1;stroke-linecap:round;stroke-linejoin:miter;marker:none;marker-start:none;marker-mid:none;marker-end:none;stroke-miterlimit:4;stroke-dashoffset:0;stroke-opacity:1;visibility:visible;display:inline;overflow:visible" />
    <path
       id="path6338"
       d="M 154.64313,207.77736 C 153.65827,180.78571 143.97564,166.10375 129.72323,160.26652 C 135.76072,161.17409 140.14528,160.28009 151.61548,173.5416 C 151.48874,163.44309 144.42004,149.07261 140.66935,136.74399 C 145.43854,143.47496 149.45828,141.84545 157.67078,175.17188 C 158.41221,166.80898 157.4611,157.59982 153.24575,146.75853 C 152.62369,144.47765 163.98974,158.1014 164.89056,168.30144 C 165.17441,171.51553 168.17648,152.98908 169.78139,151.18356 C 169.38391,158.74734 167.63529,166.161 169.78139,174.0074 C 176.85507,153.78756 184.30755,151.37175 191.67364,144.89536 C 178.65078,166.91183 172.14714,175.42374 171.64456,191.24172 C 175.04731,169.33375 185.14691,166.34166 191.90654,159.33493 C 186.92096,167.46807 182.04307,174.73962 176.76828,185.18642 C 184.02556,178.67083 189.22925,176.40911 192.13943,178.89822 C 188.17551,181.67424 183.89565,183.18651 180.49462,188.21407 L 189.81047,188.91276 C 178.81194,196.33854 169.64083,206.63598 154.64313,207.77736 z "
       style="color:black;fill:#038f48;fill-opacity:1;fill-rule:nonzero;stroke:none;stroke-width:1;stroke-linecap:round;stroke-linejoin:miter;marker:none;marker-start:none;marker-mid:none;marker-end:none;stroke-miterlimit:4;stroke-dashoffset:0;stroke-opacity:1;visibility:visible;display:inline;overflow:visible" />
    <path
       id="path3670"
       d="M 103.65625,40.3125 C 97.223927,40.387726 91.283922,44.077585 87.5625,44.53125 C 73.795334,50.010526 55.595499,56.680036 54.5,71.78125 C 45.302942,78.277369 46.465574,83.578509 54.5,90.40625 C 62.698103,97.373082 70.496922,92.511877 88.03125,87.375 C 85.87377,90.933427 91.080072,97.53953 96.1875,104.125 C 96.010432,107.56288 95.465878,111.11923 101.3125,112.75 C 104.75192,118.52104 109.82446,125.50957 117.84375,118.125 C 125.86304,110.74043 128.8566,115.33654 132.53125,118.125 C 136.20591,120.91346 136.47662,123.45696 141.84375,122.0625 C 141.84374,122.0625 183.39209,144.8577 169.09375,109.71875 C 168.03685,107.12135 163.3765,96.132748 175.84375,96.90625 C 188.05849,97.664082 186.36943,92.486291 186.78125,84.34375 C 187.19265,76.209638 190.68329,46.382101 176.78125,52.65625 C 167.2325,54.124548 156.30128,56.006945 148.125,49.65625 C 141.81203,44.752825 133.08319,45.148905 127.15625,45.90625 C 121.22931,46.663594 120.19602,47.175272 118.78125,49.875 C 113.96508,42.376529 108.65917,40.253991 103.65625,40.3125 z M 112.03125,61.75 C 110.08511,66.896374 110.39061,72.576392 100.84375,75.96875 C 98.484905,70.320415 101.96999,65.535321 112.03125,61.75 z "
       style="color:black;fill:#00904a;fill-opacity:1;fill-rule:nonzero;stroke:none;stroke-width:1;stroke-linecap:round;stroke-linejoin:miter;marker:none;marker-start:none;marker-mid:none;marker-end:none;stroke-miterlimit:4;stroke-dashoffset:0;stroke-opacity:1;visibility:visible;display:inline;overflow:visible" />
    <path
       id="path2783"
       d="M 189.11178,187.98117 C 106.59026,253.38978 13.966638,163.54194 68.937299,118.81098 C 73.143375,117.6286 78.319579,117.9014 85.007143,120.44125 C 82.305064,118.00376 77.631859,116.22332 73.129432,114.38595 C 99.751222,90.534839 138.95696,110.72376 164.89057,116.24912 C 152.06626,110.87927 150.12859,107.06465 121.80476,99.480587 C 153.93443,87.456556 166.72349,72.219695 178.86434,58.723738 C 153.4649,78.241233 128.2365,98.240744 96.186164,99.014795 C 122.04107,78.797736 128.37664,65.290451 134.84695,51.73685 C 89.701193,113.26629 54.992113,105.11351 47.045049,126.72945 L 46.812153,111.3583 C 50.649227,107.85343 54.30679,103.98953 57.525381,99.247691 L 47.510841,106.00168 C 59.753966,62.658428 88.763117,55.174223 108.76256,44.284169 C 48.294312,59.80767 41.634058,105.97727 38.660783,123.00311 C 37.380411,111.31892 37.777939,104.01214 42.154227,89.698944 C -0.38360398,212.755 148.03977,248.16046 189.11178,187.98117 z "
       style="color:black;fill:#a9833b;fill-opacity:1;fill-rule:nonzero;stroke:none;stroke-width:1;stroke-linecap:round;stroke-linejoin:miter;marker:none;marker-start:none;marker-mid:none;marker-end:none;stroke-miterlimit:4;stroke-dashoffset:0;stroke-opacity:1;visibility:visible;display:inline;overflow:visible" />
    <path
       id="path4560"
       d="M 160.23264,205.68129 C 157.14319,190.26366 152.83762,174.44066 147.88914,158.40335 M 167.68532,201.95495 L 167.91822,147.92301 M 176.30248,197.99571 C 176.12541,181.92042 176.17118,165.90083 183.28937,151.64935"
       style="color:black;fill:none;fill-opacity:1;fill-rule:nonzero;stroke:#54ad5b;stroke-width:1;stroke-linecap:round;stroke-linejoin:miter;marker:none;marker-start:none;marker-mid:none;marker-end:none;stroke-miterlimit:4;stroke-dashoffset:0;stroke-opacity:1;visibility:visible;display:inline;overflow:visible" />
    <path
       id="path5447"
       d="M 140.92208,144.19805 C 138.57813,144.8261 145.17297,160.28381 147.63332,158.86333 C 150.13952,157.41638 143.32352,143.55458 140.92208,144.19805 z "
       style="color:black;fill:#433426;fill-opacity:1;fill-rule:nonzero;stroke:none;stroke-width:1;stroke-linecap:round;stroke-linejoin:miter;marker:none;marker-start:none;marker-mid:none;marker-end:none;stroke-miterlimit:4;stroke-dashoffset:0;stroke-opacity:1;visibility:visible;display:inline;overflow:visible" />
    <path
       id="path6334"
       d="M 167.82391,130.29733 C 165.34121,130.36913 165.51937,135.30457 165.43717,139.76993 C 165.35584,144.18805 166.05247,148.45018 167.76332,148.29303 C 169.40332,148.14239 170.2714,143.98992 170.37989,139.70857 C 170.50321,134.8422 170.69313,130.21604 167.82391,130.29733 z "
       style="color:black;fill:#433426;fill-opacity:1;fill-rule:nonzero;stroke:none;stroke-width:1;stroke-linecap:round;stroke-linejoin:miter;marker:none;marker-start:none;marker-mid:none;marker-end:none;stroke-miterlimit:4;stroke-dashoffset:0;stroke-opacity:1;visibility:visible;display:inline;overflow:visible" />
    <path
       id="path6336"
       d="M 188.8078,133.45475 C 191.32627,134.12957 189.62115,138.41009 188.2887,143.02974 C 186.928,147.74728 184.79522,152.30634 183.22906,151.6593 C 181.61454,150.99228 182.34871,146.14848 183.84088,141.62443 C 185.26702,137.30059 186.18321,132.75149 188.8078,133.45475 z "
       style="color:black;fill:#433426;fill-opacity:1;fill-rule:nonzero;stroke:none;stroke-width:1;stroke-linecap:round;stroke-linejoin:miter;marker:none;marker-start:none;marker-mid:none;marker-end:none;stroke-miterlimit:4;stroke-dashoffset:0;stroke-opacity:1;visibility:visible;display:inline;overflow:visible" />
    <path
       id="path7227"
       d="M 217.05159,128.45238 C 217.05159,178.99542 176.03115,220.01587 125.4881,220.01587 C 74.945051,220.01587 33.924606,178.99542 33.924606,128.45238 C 33.924606,77.90933 74.945051,36.888885 125.4881,36.888885 C 176.03115,36.888885 217.05159,77.90933 217.05159,128.45238 z "
       style="fill:none;fill-opacity:1;fill-rule:nonzero;stroke:none;stroke-width:1.20000005;stroke-linecap:butt;stroke-linejoin:round;stroke-miterlimit:4;stroke-dashoffset:0;stroke-opacity:1"
       transform="matrix(1.080864,0,0,1.080864,-10.4768,-13.68079)" />
    <path
       id="path2778"
       d="M 125.15625,2.125 C 57.242063,2.125 2.1249999,57.242061 2.125,125.15625 C 2.125,193.07044 57.242061,248.1875 125.15625,248.1875 C 193.07044,248.1875 248.1875,193.07044 248.1875,125.15625 C 248.1875,57.242063 193.07044,2.1250001 125.15625,2.125 z M 125.15625,33.59375 C 175.6993,33.593751 216.71875,74.613203 216.71875,125.15625 C 216.71875,175.69929 175.6993,216.71875 125.15625,216.71875 C 74.613206,216.71875 33.59375,175.6993 33.59375,125.15625 C 33.59375,74.613199 74.613203,33.59375 125.15625,33.59375 z "
       style="fill:#e6ca5d;fill-opacity:1;fill-rule:nonzero;stroke:#a9833b;stroke-width:3.9000001;stroke-linecap:butt;stroke-linejoin:round;stroke-miterlimit:4;stroke-dashoffset:0;stroke-opacity:1" />
    <path
       id="text8114"
       d="M 224.30879,126.91686 L 241.43329,128.2927 L 240.9875,133.84122 C 240.81856,135.94381 240.62278,137.30751 240.40017,137.93233 C 240.06434,138.89288 239.43958,139.66956 238.52591,140.26237 C 237.61221,140.85514 236.47396,141.09679 235.11118,140.98732 C 234.05987,140.90284 233.19133,140.64103 232.50555,140.20191 C 231.81976,139.76275 231.29607,139.23278 230.93448,138.61199 C 230.57287,137.99119 230.35028,137.37176 230.2667,136.75372 C 230.16948,135.9151 230.18375,134.71317 230.30952,133.14791 L 230.49064,130.89346 L 224.03099,130.37447 L 224.30879,126.91686 z M 238.25858,131.51756 L 233.39924,131.12714 L 233.2472,133.01948 C 233.1377,134.38227 233.15406,135.30059 233.29626,135.77445 C 233.43845,136.24828 233.68986,136.63097 234.05049,136.92252 C 234.4111,137.21404 234.8445,137.38015 235.3507,137.42083 C 235.97368,137.47087 236.50235,137.32916 236.93671,136.9957 C 237.37105,136.66221 237.66137,136.2192 237.80767,135.66665 C 237.91869,135.26016 238.02426,134.43393 238.12438,133.18796 L 238.25858,131.51756 z M 218.96662,157.91097 L 219.89712,154.25405 L 224.04884,153.76266 L 225.74223,147.10754 L 222.31006,144.77107 L 223.21744,141.20502 L 238.21655,151.92616 L 237.31206,155.48086 L 218.96662,157.91097 z M 227.12851,153.39753 L 233.89038,152.67547 L 228.28441,148.85478 L 227.12851,153.39753 z M 218.19906,159.65623 L 233.84596,166.74961 L 230.83152,173.39901 C 230.07346,175.07112 229.38214,176.22238 228.75755,176.85278 C 228.13294,177.48314 227.35808,177.86313 226.43298,177.99274 C 225.50787,178.12231 224.58281,177.97743 223.65781,177.55811 C 222.48375,177.02584 221.67072,176.24124 221.21871,175.20429 C 220.76669,174.16731 220.75235,172.91702 221.17568,171.45343 C 220.46754,171.95586 219.7743,172.32138 219.09596,172.54999 C 218.41762,172.77857 217.29911,172.99418 215.74044,173.19684 L 211.8218,173.7235 L 213.53466,169.94519 L 217.97487,169.20464 C 219.55934,168.94506 220.57764,168.73763 221.02976,168.58234 C 221.48188,168.42702 221.84244,168.20877 222.11146,167.92758 C 222.38047,167.64636 222.67949,167.14287 223.00852,166.41711 L 223.29883,165.77672 L 216.76684,162.8155 L 218.19906,159.65623 z M 225.79636,166.90895 L 224.73671,169.24638 C 224.04962,170.76196 223.68464,171.73734 223.64176,172.17254 C 223.59887,172.60771 223.68558,173.003 223.90189,173.35841 C 224.1182,173.71379 224.46116,173.99793 224.93079,174.21085 C 225.45733,174.44954 225.94618,174.50174 226.39736,174.36747 C 226.84852,174.23316 227.23292,173.92922 227.55057,173.45563 C 227.70227,173.21558 228.06843,172.45518 228.64907,171.17441 L 229.76679,168.7089 L 225.79636,166.90895 z M 210.72529,175.36766 L 224.89398,185.08309 L 222.93233,187.94389 L 216.64051,183.6296 L 218.96929,193.72348 L 216.33167,197.5701 L 214.47123,188.45098 L 201.96416,188.14461 L 204.50237,184.44296 L 213.82255,185.10752 L 213.04518,181.16429 L 208.76364,178.22846 L 210.72529,175.36766 z M 196.14958,194.43334 L 207.58846,207.25104 L 205.00044,209.56067 L 199.92083,203.86877 L 199.77194,214.22673 L 196.2921,217.33224 L 196.66302,208.03267 L 184.59092,204.74863 L 187.9396,201.76016 L 196.83148,204.63104 L 197.01819,200.61626 L 193.56156,196.74297 L 196.14958,194.43334 z M 183.0184,205.74062 L 192.05765,220.34999 L 185.84917,224.19136 C 184.28791,225.15733 183.07233,225.72801 182.20241,225.90339 C 181.3325,226.07873 180.47736,225.96244 179.63699,225.55453 C 178.79663,225.14659 178.10925,224.51079 177.57487,223.64713 C 176.89662,222.55091 176.65877,221.44635 176.8613,220.33345 C 177.06385,219.22051 177.74868,218.17437 178.9158,217.19501 C 178.04782,217.21757 177.26851,217.13476 176.57787,216.94656 C 175.88724,216.75834 174.83835,216.31406 173.4312,215.61374 L 169.88392,213.86732 L 173.41169,211.68458 L 177.51123,213.54405 C 178.97153,214.21149 179.93265,214.60672 180.3946,214.72972 C 180.85656,214.85271 181.27758,214.87242 181.65765,214.78885 C 182.03773,214.70526 182.56659,214.45383 183.24424,214.03456 L 183.84217,213.6646 L 180.06862,207.56574 L 183.0184,205.74062 z M 185.285,215.99652 L 183.10256,217.34686 C 181.68747,218.2224 180.84086,218.82891 180.56274,219.16637 C 180.28462,219.5038 180.13634,219.88035 180.11789,220.296 C 180.09945,220.71162 180.22588,221.13868 180.49718,221.57718 C 180.80137,222.06879 181.17819,222.38456 181.62764,222.5245 C 182.0771,222.6644 182.56567,222.62623 183.09333,222.41001 C 183.35306,222.29523 184.08085,221.86789 185.2767,221.128 L 187.57872,219.70367 L 185.285,215.99652 z M 153.7062,220.33059 L 157.21284,218.93694 L 160.04805,222.00938 L 166.42971,219.47312 L 166.30617,215.32298 L 169.72569,213.96396 L 169.85237,232.40035 L 166.44374,233.75504 L 153.7062,220.33059 z M 162.15166,224.2881 L 166.70596,229.33809 L 166.50774,222.55686 L 162.15166,224.2881 z M 149.56519,238.73793 L 146.19301,239.49917 L 143.79833,228.8911 C 143.48524,227.50412 143.36633,226.40969 143.44159,225.60781 C 143.54909,224.55838 143.96675,223.64117 144.69456,222.85617 C 145.42238,222.07116 146.49121,221.51953 147.90104,221.20128 C 149.55474,220.82797 150.93192,221.00363 152.03256,221.72828 C 153.1332,222.45292 153.88947,223.70981 154.30137,225.49897 L 151.19466,226.58472 C 150.9398,225.6331 150.64571,224.98668 150.31239,224.64546 C 149.81069,224.12599 149.18643,223.95056 148.43959,224.11915 C 147.68514,224.28946 147.20029,224.62516 146.98503,225.12627 C 146.76979,225.62737 146.81527,226.55617 147.12148,227.91267 L 149.56519,238.73793 z M 139.96612,231.91537 C 140.07158,233.66218 139.89885,235.14403 139.44793,236.36092 C 139.11075,237.25786 138.62583,238.07372 137.99318,238.80851 C 137.36053,239.54327 136.65272,240.10257 135.86974,240.4864 C 134.82868,241.00319 133.61021,241.30373 132.2143,241.38803 C 129.68767,241.54055 127.61864,240.87888 126.00723,239.40302 C 124.39584,237.92712 123.50586,235.79329 123.33729,233.00151 C 123.17017,230.2331 123.79193,228.02169 125.20259,226.36727 C 126.61327,224.71284 128.57803,223.80959 131.09687,223.65752 C 133.64692,223.50356 135.72144,224.15903 137.32044,225.62392 C 138.91944,227.08881 139.80133,229.18596 139.96612,231.91537 L 139.96612,231.91537 z M 136.40546,232.24774 C 136.28823,230.30596 135.75096,228.8611 134.79365,227.91317 C 133.83635,226.96523 132.66755,226.53293 131.28725,226.61627 C 129.90696,226.6996 128.80427,227.26513 127.97918,228.31285 C 127.15412,229.36057 126.80161,230.87871 126.92165,232.86728 C 127.04031,234.83244 127.55968,236.27251 128.47976,237.18748 C 129.39987,238.10243 130.57346,238.51683 132.00054,238.43069 C 133.42763,238.34451 134.54834,237.78573 135.36265,236.75432 C 136.17698,235.72289 136.52458,234.2207 136.40546,232.24774 L 136.40546,232.24774 z M 118.02352,241.29605 L 111.20573,240.47386 C 109.85614,240.31109 108.85654,240.1335 108.20693,239.94107 C 107.55734,239.74862 106.99228,239.44243 106.51174,239.02252 C 106.03123,238.60258 105.65223,238.07489 105.37474,237.43946 C 105.09728,236.804 105.00297,236.11785 105.09181,235.38101 C 105.18817,234.5821 105.4918,233.87509 106.0027,233.25997 C 106.51363,232.64483 107.15762,232.21494 107.93468,231.97028 C 106.93183,231.54244 106.19513,230.93031 105.72458,230.13388 C 105.25407,229.33743 105.0782,228.44669 105.19698,227.46164 C 105.29053,226.68601 105.56183,225.95346 106.01087,225.26398 C 106.45995,224.57451 107.02309,224.0483 107.70031,223.68537 C 108.37755,223.32243 109.17987,223.14574 110.10726,223.15528 C 110.68872,223.16244 112.07789,223.29062 114.27479,223.53982 L 120.08038,224.23994 L 118.02352,241.29605 z M 114.92206,238.04194 L 115.39769,234.09786 L 113.14061,233.82567 C 111.79878,233.66384 110.96264,233.58268 110.63219,233.58219 C 110.0343,233.5809 109.54631,233.72861 109.16821,234.02533 C 108.79013,234.32203 108.56789,234.74574 108.50146,235.29644 C 108.43787,235.82386 108.53162,236.26993 108.78272,236.63466 C 109.03384,236.99937 109.44217,237.25124 110.0077,237.39028 C 110.34431,237.4702 111.32315,237.60792 112.9442,237.80342 L 114.92206,238.04194 z M 115.74004,231.25905 L 116.29003,226.69835 L 113.10219,226.31391 C 111.86119,226.16425 111.06972,226.10422 110.72777,226.1338 C 110.20464,226.16514 109.76038,226.34174 109.39498,226.66359 C 109.02962,226.98544 108.81045,227.44886 108.73748,228.05386 C 108.67576,228.56577 108.74748,229.01509 108.95264,229.40181 C 109.15783,229.78853 109.48522,230.09162 109.93482,230.3111 C 110.38445,230.53057 111.39264,230.73477 112.9594,230.92372 L 115.74004,231.25905 z M 102.88082,221.855 L 97.867761,238.28701 L 90.88472,236.15663 C 89.1287,235.62089 87.897797,235.08405 87.192009,234.54611 C 86.486255,234.00815 86.009374,233.28886 85.761365,232.38825 C 85.513395,231.48762 85.53758,230.5516 85.833922,229.58018 C 86.21009,228.34722 86.883114,227.43966 87.852995,226.8575 C 88.82291,226.27533 90.060869,226.09963 91.566877,226.33038 C 90.977194,225.69307 90.525201,225.05285 90.210896,224.40971 C 89.89662,223.76657 89.538347,222.68528 89.136077,221.16584 L 88.107703,217.34804 L 92.075595,218.55856 L 93.383429,222.86593 C 93.845476,224.40361 94.182692,225.38659 94.39508,225.81486 C 94.607488,226.24313 94.870483,226.57249 95.184065,226.80293 C 95.497666,227.03337 96.035559,227.26486 96.797744,227.49739 L 97.470268,227.70256 L 99.56303,220.84282 L 102.88082,221.855 z M 96.670094,230.32541 L 94.215381,229.57653 C 92.623753,229.09094 91.609396,228.855 91.172306,228.86868 C 90.735243,228.88236 90.354465,229.0194 90.029969,229.2798 C 89.705503,229.5402 89.468032,229.91699 89.317557,230.41018 C 89.148875,230.96313 89.160245,231.45464 89.351666,231.88469 C 89.543119,232.31473 89.894168,232.65666 90.404816,232.91048 C 90.662442,233.0299 91.46377,233.29479 92.808806,233.70514 L 95.398023,234.49506 L 96.670094,230.32541 z M 72.582121,209.44448 L 75.942273,211.16151 L 75.502296,215.319 L 81.617355,218.44378 L 84.655711,215.61406 L 87.932381,217.28844 L 74.156551,229.54172 L 70.890316,227.87268 L 72.582121,209.44448 z M 75.176543,218.40308 L 74.383638,225.15701 L 79.350644,220.53604 L 75.176543,218.40308 z M 72.308664,209.13165 L 70.45504,211.65238 L 56.583258,215.28509 L 63.031443,220.02676 L 61.309725,222.36812 L 51.179561,214.91891 L 52.776315,212.74749 L 67.223461,208.98512 L 59.349689,203.19515 L 61.064465,200.86323 L 72.308664,209.13165 z M 53.737704,205.84485 C 52.480604,207.06229 51.243459,207.89607 50.026265,208.3462 C 49.125971,208.67431 48.191016,208.8375 47.221397,208.83578 C 46.251805,208.83405 45.366439,208.66101 44.565296,208.31668 C 43.495212,207.86305 42.473727,207.13396 41.500838,206.1294 C 39.739908,204.31108 38.894892,202.30993 38.965786,200.12594 C 39.036724,197.94194 40.076745,195.87708 42.085852,193.93133 C 44.078161,192.00191 46.161397,191.03389 48.335568,191.02729 C 50.509763,191.02071 52.474612,191.92377 54.230119,193.73646 C 56.007379,195.57162 56.860681,197.57291 56.790027,199.74033 C 56.71938,201.90775 55.70194,203.94259 53.737704,205.84485 L 53.737704,205.84485 z M 51.166995,203.35885 C 52.564414,202.00552 53.31118,200.65697 53.407298,199.31317 C 53.50343,197.96938 53.070492,196.80082 52.108484,195.80748 C 51.146492,194.81414 49.999284,194.34547 48.666856,194.40146 C 47.334452,194.45746 45.952703,195.17842 44.521606,196.56435 C 43.107377,197.93398 42.35259,199.26583 42.257244,200.55991 C 42.161934,201.85399 42.611575,203.01454 43.606168,204.04155 C 44.600795,205.06856 45.75462,205.55529 47.067646,205.50176 C 48.380699,205.44821 49.747148,204.73391 51.166995,203.35885 L 51.166995,203.35885 z M 45.140143,183.82021 L 32.784288,196.44151 L 30.893149,193.43624 L 39.501608,184.95921 L 27.841113,188.58615 L 25.644146,185.09489 L 34.196527,176.15469 L 22.6358,180.31423 L 20.775867,177.35855 L 37.538138,171.73963 L 39.497933,174.854 L 30.449877,184.59072 L 43.136659,180.63641 L 45.140143,183.82021 z M 33.329951,162.15666 L 26.577654,164.74242 L 19.536895,174.17725 L 18.082669,170.37977 L 22.984201,164.17348 L 15.220314,162.90518 L 13.791233,159.17336 L 25.363239,161.50563 L 32.093648,158.92825 L 33.329951,162.15666 z "
       style="font-size:23.99999428px;font-style:normal;font-variant:normal;font-weight:bold;font-stretch:normal;text-indent:0;text-align:start;text-decoration:none;line-height:normal;letter-spacing:normal;word-spacing:normal;text-transform:none;direction:ltr;block-progression:tb;writing-mode:lr-tb;text-anchor:start;color:black;fill:black;fill-opacity:1;fill-rule:nonzero;stroke:none;stroke-width:1.00000036px;stroke-linecap:butt;stroke-linejoin:miter;marker:none;marker-start:none;marker-mid:none;marker-end:none;stroke-miterlimit:4;stroke-dashoffset:0;stroke-opacity:1;visibility:visible;display:inline;overflow:visible;font-family:Arial"
       transform="matrix(-0.989352,-0.145544,0.145544,-0.989352,230.4927,267.0986)" />
    <path
       id="path9006"
       d="M 8.5588089,125.15868 C 8.5588089,189.52181 60.79555,241.75856 125.15869,241.75856 C 189.52182,241.75856 241.75857,189.52181 241.75857,125.15868 C 241.75857,125.15868 241.75857,125.15867 241.75857,125.15867"
       style="fill:none;fill-opacity:1;fill-rule:nonzero;stroke:none;stroke-width:0.86435878;stroke-linecap:butt;stroke-linejoin:round;stroke-miterlimit:4;stroke-dashoffset:0;stroke-opacity:1" />
    <path
       id="text9894"
       d="M 33.654877,157.11019 L 36.674393,163.86226 C 37.355296,165.38491 37.757875,166.59771 37.882132,167.50066 C 38.045927,168.71539 37.895454,169.88597 37.430714,171.01239 C 36.965928,172.13879 36.238334,173.16308 35.247931,174.08526 C 34.257487,175.00742 32.905266,175.85176 31.191264,176.61828 C 29.685241,177.29175 28.303526,177.685 27.046116,177.79803 C 25.510177,177.93573 24.140584,177.76443 22.937334,177.28413 C 22.02678,176.9225 21.153058,176.27485 20.316165,175.34115 C 19.693576,174.64108 19.077171,173.60878 18.466946,172.24423 L 15.358129,165.29246 L 33.654877,157.11019 z M 32.211739,162.18866 L 20.092951,167.60816 L 21.326432,170.3664 C 21.787817,171.39813 22.179081,172.11677 22.500226,172.52231 C 22.917891,173.0544 23.39399,173.43806 23.928523,173.6733 C 24.463037,173.90851 25.195895,173.96767 26.127101,173.85079 C 27.058284,173.73389 28.231121,173.35916 29.645617,172.72662 C 31.060083,172.09405 32.090092,171.48367 32.735647,170.89546 C 33.381165,170.30724 33.815641,169.69359 34.039076,169.05453 C 34.262472,168.41545 34.294647,167.71712 34.1356,166.95955 C 34.021371,166.39159 33.627525,165.3546 32.954059,163.8486 L 32.211739,162.18866 z M 31.616281,177.40609 C 33.300374,176.25189 34.886432,175.53504 36.374461,175.25555 C 37.474134,175.05437 38.581397,175.04964 39.696253,175.24138 C 40.811076,175.43313 41.795504,175.80541 42.649541,176.35822 C 43.791505,177.08938 44.823664,178.12784 45.746023,179.47362 C 47.415479,181.90955 47.99573,184.37652 47.486776,186.87454 C 46.977774,189.37254 45.377507,191.54388 42.685971,193.38856 C 40.016951,195.21776 37.431503,195.92341 34.92962,195.50551 C 32.427712,195.08758 30.344602,193.66442 28.680281,191.23601 C 26.995338,188.77751 26.405584,186.30877 26.911018,183.82977 C 27.416444,181.35077 28.984863,179.20954 31.616281,177.40609 L 31.616281,177.40609 z M 34.086424,180.76843 C 32.214353,182.05146 31.091553,183.45633 30.71802,184.98307 C 30.344471,186.50979 30.613715,187.93853 31.525754,189.26928 C 32.437776,190.60001 33.6655,191.36356 35.20893,191.55993 C 36.752335,191.75627 38.482629,191.19748 40.399816,189.88355 C 42.294413,188.58506 43.423168,187.20096 43.786085,185.73125 C 44.14896,184.26154 43.858934,182.83876 42.916008,181.46291 C 41.973041,180.08706 40.741242,179.30144 39.220607,179.10605 C 37.699938,178.91067 35.988546,179.46479 34.086424,180.76843 L 34.086424,180.76843 z M 36.736128,201.40976 L 51.053036,187.61856 L 53.860597,190.53315 L 41.975791,201.98154 L 48.956753,209.22862 L 46.524651,211.57141 L 36.736128,201.40976 z M 48.765949,213.24909 L 61.649159,197.89515 L 64.749273,200.4964 L 51.866062,215.85034 L 48.765949,213.24909 z M 54.779333,218.45666 L 65.738479,201.67519 L 69.035248,203.82814 L 68.58496,219.52019 L 75.903516,208.31347 L 79.051473,210.36924 L 68.092327,227.15071 L 64.692534,224.93048 L 65.073908,209.56899 L 57.927289,220.51243 L 54.779333,218.45666 z M 88.511746,236.32862 L 84.464899,234.59552 L 84.648529,229.72149 L 77.283772,226.56744 L 73.970748,230.10127 L 70.024445,228.41122 L 85.091173,213.06007 L 89.024908,214.74474 L 88.511746,236.32862 z M 84.784018,226.10591 L 85.173298,218.18177 L 79.75688,223.95298 L 84.784018,226.10591 z M 108.94736,220.37306 L 112.9133,221.10659 L 110.60579,233.58249 C 110.30408,235.21368 109.9286,236.44192 109.47936,237.2672 C 108.88177,238.34313 108.01237,239.13473 106.87114,239.64202 C 105.72988,240.14929 104.33023,240.2496 102.67216,239.94293 C 100.72728,239.58321 99.331234,238.7619 98.484025,237.479 C 97.636812,236.1961 97.403504,234.50072 97.784099,232.39285 L 101.6145,232.65639 C 101.45044,233.79397 101.46872,234.6223 101.66932,235.1414 C 101.96856,235.92901 102.55735,236.40405 103.43569,236.5665 C 104.32298,236.73061 104.99719,236.59346 105.45832,236.15503 C 105.91944,235.71662 106.29753,234.69974 106.59261,233.1044 L 108.94736,220.37306 z M 113.56771,241.41591 L 114.29493,221.38614 L 129.14647,221.92535 L 129.02345,225.31374 L 118.21612,224.92136 L 118.0549,229.36179 L 128.11077,229.72689 L 127.98825,233.10162 L 117.93237,232.73652 L 117.73445,238.18801 L 128.92434,238.59428 L 128.80182,241.96901 L 113.56771,241.41591 z M 130.55445,241.92783 L 130.13233,238.30193 L 139.08551,224.16983 L 129.81026,225.24966 L 129.41817,221.88178 L 143.98968,220.18536 L 144.35331,223.3088 L 135.01206,238.00912 L 146.33791,236.69056 L 146.72842,240.04485 L 130.55445,241.92783 z M 149.09468,239.31304 L 144.66367,219.766 L 148.61042,218.87133 L 153.04143,238.41837 L 149.09468,239.31304 z M 156.82397,237.6417 L 150.19083,218.72816 L 164.21471,213.80986 L 165.33683,217.00942 L 155.13177,220.58842 L 156.60229,224.7814 L 166.09776,221.45125 L 167.21535,224.63791 L 157.71988,227.96806 L 159.52522,233.11574 L 170.09151,229.41004 L 171.2091,232.5967 L 156.82397,237.6417 z M 174.4125,231.17131 L 164.71406,213.63105 L 172.16808,209.50954 C 174.04255,208.47313 175.49163,207.87759 176.51534,207.72293 C 177.53904,207.56832 178.52886,207.75268 179.48481,208.27601 C 180.44075,208.7994 181.2054,209.57955 181.77875,210.61647 C 182.50646,211.9326 182.72051,213.2333 182.42092,214.51856 C 182.12131,215.80385 181.26353,216.98377 179.84757,218.0583 C 180.86028,218.0816 181.76366,218.22263 182.55769,218.48139 C 183.35171,218.74017 184.54856,219.3178 186.14825,220.21426 L 190.18199,222.45198 L 185.94648,224.79389 L 181.27567,222.39289 C 179.61217,221.5317 178.51478,221.01625 177.98351,220.84652 C 177.45224,220.67682 176.96277,220.6298 176.5151,220.70546 C 176.06744,220.78115 175.4368,221.04392 174.62321,221.49377 L 173.90532,221.8907 L 177.95406,229.2131 L 174.4125,231.17131 z M 172.35728,219.09096 L 174.97755,217.64215 C 176.67653,216.70275 177.69771,216.04438 178.04108,215.66704 C 178.38444,215.28973 178.57874,214.85943 178.62399,214.37613 C 178.66922,213.89287 178.54629,213.38801 178.25521,212.86155 C 177.92884,212.27131 177.50778,211.88182 176.99205,211.69308 C 176.4763,211.50438 175.90481,211.52094 175.27759,211.74275 C 174.96838,211.86166 174.09589,212.31804 172.66013,213.11189 L 169.89628,214.64009 L 172.35728,219.09096 z M 190.52532,222.05921 L 188.27298,219.18653 L 188.53509,202.4591 L 181.18662,208.22071 L 179.09456,205.55245 L 190.63908,196.5009 L 192.5793,198.97549 L 192.28269,216.39015 L 201.25579,209.35474 L 203.33942,212.01224 L 190.52532,222.05921 z M 208.8189,206.37812 L 202.66533,200.6082 L 189.17613,198.02442 L 192.42113,194.56366 L 201.43198,196.54675 L 198.80825,187.75184 L 201.99714,184.35092 L 205.44399,197.68476 L 211.57762,203.43597 L 208.8189,206.37812 z M 218.79415,181.61084 L 222.00352,179.03318 C 223.49151,180.74577 224.29004,182.47856 224.3991,184.23156 C 224.50814,185.9846 223.9669,187.75654 222.77537,189.5474 C 221.30109,191.76324 219.33242,193.08084 216.86934,193.50021 C 214.40626,193.91959 211.86192,193.25582 209.23631,191.50891 C 206.45895,189.66103 204.77906,187.50878 204.19662,185.05215 C 203.61421,182.59556 204.10053,180.19863 205.65557,177.86137 C 207.01373,175.8201 208.72018,174.56342 210.77495,174.09131 C 211.99316,173.80708 213.39626,173.91954 214.98427,174.4287 L 213.56207,178.29395 C 212.56572,177.9157 211.60886,177.87298 210.69149,178.16578 C 209.77413,178.45862 209.01756,179.05274 208.42178,179.94816 C 207.59883,181.18509 207.37504,182.48402 207.75041,183.84495 C 208.12581,185.20591 209.30759,186.54779 211.29575,187.87058 C 213.40534,189.27418 215.1603,189.89443 216.56062,189.73135 C 217.96094,189.56828 219.06501,188.87966 219.87284,187.6655 C 220.4686,186.77008 220.69649,185.81052 220.55652,184.78682 C 220.41654,183.76316 219.82908,182.70449 218.79415,181.61084 L 218.79415,181.61084 z M 230.85038,174.48372 L 223.14752,171.04506 L 209.55548,173.01753 L 211.48938,168.68545 L 220.65307,167.61079 L 215.29587,160.15862 L 217.19632,155.90145 L 224.81658,167.37331 L 232.49447,170.80083 L 230.85038,174.48372 z "
       style="font-size:28px;font-style:normal;font-variant:normal;font-weight:bold;font-stretch:normal;text-indent:0;text-align:start;text-decoration:none;line-height:normal;letter-spacing:normal;word-spacing:normal;text-transform:none;direction:ltr;block-progression:tb;writing-mode:lr-tb;text-anchor:start;color:black;fill:black;fill-opacity:1;fill-rule:nonzero;stroke:none;stroke-width:1.00000036px;stroke-linecap:butt;stroke-linejoin:miter;marker:none;marker-start:none;marker-mid:none;marker-end:none;stroke-miterlimit:4;stroke-dashoffset:0;stroke-opacity:1;visibility:visible;display:inline;overflow:visible;font-family:Arial" />
  </g>
</svg>
